<svg width="13" height="41" viewBox="0 0 13 41" fill="none" xmlns="http://www.w3.org/2000/svg">
<path d="M12.105 36.44C12.105 37.14 11.985 37.77 11.745 38.33C11.495 38.89 11.145 39.33 10.695 39.65C10.245 39.97 9.72 40.13 9.12 40.13V38.3C9.57 38.26 9.94 38.085 10.23 37.775C10.52 37.455 10.665 37.01 10.665 36.44C10.665 35.85 10.525 35.39 10.245 35.06C9.955 34.73 9.585 34.565 9.135 34.565C8.785 34.565 8.5 34.67 8.28 34.88C8.06 35.08 7.89 35.335 7.77 35.645C7.65 35.945 7.52 36.365 7.38 36.905C7.2 37.585 7.02 38.14 6.84 38.57C6.65 38.99 6.36 39.35 5.97 39.65C5.58 39.95 5.06 40.1 4.41 40.1C3.81 40.1 3.285 39.95 2.835 39.65C2.385 39.35 2.04 38.93 1.8 38.39C1.56 37.85 1.44 37.225 1.44 36.515C1.44 35.505 1.695 34.68 2.205 34.04C2.705 33.39 3.395 33.03 4.275 32.96V34.85C3.895 34.88 3.57 35.06 3.3 35.39C3.03 35.72 2.895 36.155 2.895 36.695C2.895 37.185 3.02 37.585 3.27 37.895C3.52 38.205 3.88 38.36 4.35 38.36C4.67 38.36 4.935 38.265 5.145 38.075C5.345 37.875 5.505 37.625 5.625 37.325C5.745 37.025 5.875 36.615 6.015 36.095C6.205 35.405 6.395 34.845 6.585 34.415C6.775 33.975 7.07 33.605 7.47 33.305C7.86 32.995 8.385 32.84 9.045 32.84C9.575 32.84 10.075 32.985 10.545 33.275C11.015 33.555 11.395 33.97 11.685 34.52C11.965 35.06 12.105 35.7 12.105 36.44ZM7.86 31.3923C7.01 31.3923 6.265 31.2223 5.625 30.8823C4.975 30.5323 4.475 30.0523 4.125 29.4423C3.775 28.8323 3.6 28.1323 3.6 27.3423C3.6 26.3423 3.84 25.5173 4.32 24.8673C4.79 24.2073 5.465 23.7623 6.345 23.5323V25.3773C5.935 25.5273 5.615 25.7673 5.385 26.0973C5.155 26.4273 5.04 26.8423 5.04 27.3423C5.04 28.0423 5.29 28.6023 5.79 29.0223C6.28 29.4323 6.97 29.6373 7.86 29.6373C8.75 29.6373 9.445 29.4323 9.945 29.0223C10.445 28.6023 10.695 28.0423 10.695 27.3423C10.695 26.3523 10.26 25.6973 9.39 25.3773V23.5323C10.23 23.7723 10.9 24.2223 11.4 24.8823C11.89 25.5423 12.135 26.3623 12.135 27.3423C12.135 28.1323 11.96 28.8323 11.61 29.4423C11.25 30.0523 10.75 30.5323 10.11 30.8823C9.46 31.2223 8.71 31.3923 7.86 31.3923ZM4.935 20.1181C4.515 19.8681 4.19 19.5381 3.96 19.1281C3.72 18.7081 3.6 18.2131 3.6 17.6431H5.37V18.0781C5.37 18.7481 5.54 19.2581 5.88 19.6081C6.22 19.9481 6.81 20.1181 7.65 20.1181H12V21.8281H3.735V20.1181H4.935ZM12.135 12.4863C12.135 13.2663 11.96 13.9713 11.61 14.6013C11.25 15.2313 10.75 15.7263 10.11 16.0863C9.46 16.4463 8.71 16.6263 7.86 16.6263C7.02 16.6263 6.275 16.4413 5.625 16.0713C4.975 15.7013 4.475 15.1963 4.125 14.5563C3.775 13.9163 3.6 13.2013 3.6 12.4113C3.6 11.6213 3.775 10.9063 4.125 10.2663C4.475 9.62629 4.975 9.12129 5.625 8.75129C6.275 8.38129 7.02 8.19629 7.86 8.19629C8.7 8.19629 9.445 8.38629 10.095 8.76629C10.745 9.14629 11.25 9.66629 11.61 10.3263C11.96 10.9763 12.135 11.6963 12.135 12.4863ZM10.65 12.4863C10.65 12.0463 10.545 11.6363 10.335 11.2563C10.125 10.8663 9.81 10.5513 9.39 10.3113C8.97 10.0713 8.46 9.95129 7.86 9.95129C7.26 9.95129 6.755 10.0663 6.345 10.2963C5.925 10.5263 5.61 10.8313 5.4 11.2113C5.19 11.5913 5.085 12.0013 5.085 12.4413C5.085 12.8813 5.19 13.2913 5.4 13.6713C5.61 14.0413 5.925 14.3363 6.345 14.5563C6.755 14.7763 7.26 14.8863 7.86 14.8863C8.75 14.8863 9.44 14.6613 9.93 14.2113C10.41 13.7513 10.65 13.1763 10.65 12.4863ZM0.9 4.79586H12V6.50586H0.9V4.79586ZM0.9 0.840781H12V2.55078H0.9V0.840781Z" fill="white"/>
</svg>
